<svg width="1786" height="1786" viewBox="0 0 1786 1786" fill="none" xmlns="http://www.w3.org/2000/svg">
<g id="Group 135">
<circle id="Ellipse 5" cx="893" cy="893" r="620" stroke="#EEEEEE" stroke-width="546"/>
<path id="bottom" d="M945.828 1646.5C922.349 1687.17 863.651 1687.17 840.172 1646.5L698.144 1400.5C674.665 1359.83 704.014 1309 750.972 1309L1035.03 1309C1081.99 1309 1111.33 1359.83 1087.86 1400.5L945.828 1646.5Z" fill="black"/>
<path id="top" d="M840.172 91.5C863.651 50.8333 922.349 50.8333 945.828 91.5L1087.86 337.5C1111.33 378.167 1081.99 429 1035.03 429L750.972 429C704.014 429 674.665 378.167 698.144 337.5L840.172 91.5Z" fill="black"/>
<path id="top-right" d="M1346.54 376.212C1391.9 364.058 1433.41 405.563 1421.25 450.921L1384.74 587.203C1372.58 632.56 1315.89 647.752 1282.68 614.548L1182.92 514.783C1149.71 481.579 1164.9 424.882 1210.26 412.728L1346.54 376.212Z" fill="#505050"/>
<path id="bottom-right" d="M1421.25 1322.54C1433.41 1367.9 1391.9 1409.41 1346.54 1397.25L1210.26 1360.74C1164.9 1348.58 1149.71 1291.89 1182.92 1258.68L1282.68 1158.92C1315.89 1125.71 1372.58 1140.9 1384.74 1186.26L1421.25 1322.54Z" fill="#505050"/>
<path id="top-left" d="M366.212 479.921C354.058 434.564 395.563 393.058 440.921 405.212L577.203 441.728C622.56 453.882 637.752 510.579 604.548 543.783L504.783 643.548C471.579 676.752 414.882 661.56 402.728 616.203L366.212 479.921Z" fill="#505050"/>
<path id="bottom-left" d="M440.921 1397.25C395.563 1409.41 354.058 1367.9 366.212 1322.54L402.728 1186.26C414.882 1140.9 471.579 1125.71 504.783 1158.92L604.548 1258.68C637.752 1291.89 622.56 1348.58 577.202 1360.74L440.921 1397.25Z" fill="#505050"/>
<path id="right" d="M1694.5 840.172C1735.17 863.651 1735.17 922.349 1694.5 945.828L1448.5 1087.86C1407.83 1111.33 1357 1081.99 1357 1035.03L1357 750.972C1357 704.014 1407.83 674.665 1448.5 698.144L1694.5 840.172Z" fill="black"/>
<path id="left" d="M91.5 945.828C50.8334 922.349 50.8333 863.651 91.5 840.172L337.5 698.144C378.167 674.665 429 704.014 429 750.972L429 1035.03C429 1081.99 378.167 1111.33 337.5 1087.86L91.5 945.828Z" fill="black"/>
</g>
</svg>
