<?xml version="1.0" encoding="utf-8"?>
<svg xmlns="http://www.w3.org/2000/svg" viewBox="0 0 80 80" width="480" height="480">
  <path d="M40 7C21.786448 7 7 21.786448 7 40C7 58.213552 21.786448 73 40 73C58.213552 73 73 58.213552 73 40C73 21.786448 58.213552 7 40 7 z M 40 9C57.132672 9 71 22.867328 71 40C71 57.132672 57.132672 71 40 71C22.867328 71 9 57.132672 9 40C9 22.867328 22.867328 9 40 9 z M 40 11 A 1 1 0 0 0 39 12 A 1 1 0 0 0 40 13 A 1 1 0 0 0 41 12 A 1 1 0 0 0 40 11 z M 40 15 A 1 1 0 0 0 39 16 A 1 1 0 0 0 40 17 A 1 1 0 0 0 41 16 A 1 1 0 0 0 40 15 z M 40 19 A 1 1 0 0 0 39 20 A 1 1 0 0 0 40 21 A 1 1 0 0 0 41 20 A 1 1 0 0 0 40 19 z M 20.201172 19.201172 A 1 1 0 0 0 19.201172 20.201172 A 1 1 0 0 0 20.201172 21.201172 A 1 1 0 0 0 21.201172 20.201172 A 1 1 0 0 0 20.201172 19.201172 z M 59.798828 19.201172 A 1 1 0 0 0 58.798828 20.201172 A 1 1 0 0 0 59.798828 21.201172 A 1 1 0 0 0 60.798828 20.201172 A 1 1 0 0 0 59.798828 19.201172 z M 36.005859 19.402344 A 1 1 0 0 0 35.005859 20.402344 A 1 1 0 0 0 36.005859 21.402344 A 1 1 0 0 0 37.005859 20.402344 A 1 1 0 0 0 36.005859 19.402344 z M 43.994141 19.402344 A 1 1 0 0 0 42.994141 20.402344 A 1 1 0 0 0 43.994141 21.402344 A 1 1 0 0 0 44.994141 20.402344 A 1 1 0 0 0 43.994141 19.402344 z M 32.46875 20.472656 A 1 1 0 0 0 31.46875 21.472656 A 1 1 0 0 0 32.46875 22.472656 A 1 1 0 0 0 33.46875 21.472656 A 1 1 0 0 0 32.46875 20.472656 z M 47.53125 20.472656 A 1 1 0 0 0 46.53125 21.472656 A 1 1 0 0 0 47.53125 22.472656 A 1 1 0 0 0 48.53125 21.472656 A 1 1 0 0 0 47.53125 20.472656 z M 23.029297 22.029297 A 1 1 0 0 0 22.029297 23.029297 A 1 1 0 0 0 23.029297 24.029297 A 1 1 0 0 0 24.029297 23.029297 A 1 1 0 0 0 23.029297 22.029297 z M 56.970703 22.029297 A 1 1 0 0 0 55.970703 23.029297 A 1 1 0 0 0 56.970703 24.029297 A 1 1 0 0 0 57.970703 23.029297 A 1 1 0 0 0 56.970703 22.029297 z M 29.017578 22.285156 A 1 1 0 0 0 28.017578 23.285156 A 1 1 0 0 0 29.017578 24.285156 A 1 1 0 0 0 30.017578 23.285156 A 1 1 0 0 0 29.017578 22.285156 z M 50.982422 22.285156 A 1 1 0 0 0 49.982422 23.285156 A 1 1 0 0 0 50.982422 24.285156 A 1 1 0 0 0 51.982422 23.285156 A 1 1 0 0 0 50.982422 22.285156 z M 40 23 A 1 1 0 0 0 39 24 A 1 1 0 0 0 40 25 A 1 1 0 0 0 41 24 A 1 1 0 0 0 40 23 z M 25.857422 24.857422 A 1 1 0 0 0 24.857422 25.857422 A 1 1 0 0 0 25.857422 26.857422 A 1 1 0 0 0 26.857422 25.857422 A 1 1 0 0 0 25.857422 24.857422 z M 54.142578 24.857422 A 1 1 0 0 0 53.142578 25.857422 A 1 1 0 0 0 54.142578 26.857422 A 1 1 0 0 0 55.142578 25.857422 A 1 1 0 0 0 54.142578 24.857422 z M 40 27 A 1 1 0 0 0 39 28 A 1 1 0 0 0 40 29 A 1 1 0 0 0 41 28 A 1 1 0 0 0 40 27 z M 28.685547 27.685547 A 1 1 0 0 0 27.685547 28.685547 A 1 1 0 0 0 28.685547 29.685547 A 1 1 0 0 0 29.685547 28.685547 A 1 1 0 0 0 28.685547 27.685547 z M 51.3125 27.685547 A 1 1 0 0 0 50.3125 28.685547 A 1 1 0 0 0 51.3125 29.685547 A 1 1 0 0 0 52.3125 28.685547 A 1 1 0 0 0 51.3125 27.685547 z M 23.285156 28.017578 A 1 1 0 0 0 22.285156 29.017578 A 1 1 0 0 0 23.285156 30.017578 A 1 1 0 0 0 24.285156 29.017578 A 1 1 0 0 0 23.285156 28.017578 z M 56.714844 28.017578 A 1 1 0 0 0 55.714844 29.017578 A 1 1 0 0 0 56.714844 30.017578 A 1 1 0 0 0 57.714844 29.017578 A 1 1 0 0 0 56.714844 28.017578 z M 31.515625 30.515625 A 1 1 0 0 0 30.515625 31.515625 A 1 1 0 0 0 31.515625 32.515625 A 1 1 0 0 0 32.515625 31.515625 A 1 1 0 0 0 31.515625 30.515625 z M 48.484375 30.515625 A 1 1 0 0 0 47.484375 31.515625 A 1 1 0 0 0 48.484375 32.515625 A 1 1 0 0 0 49.484375 31.515625 A 1 1 0 0 0 48.484375 30.515625 z M 40 31 A 1 1 0 0 0 39 32 A 1 1 0 0 0 40 33 A 1 1 0 0 0 41 32 A 1 1 0 0 0 40 31 z M 21.472656 31.46875 A 1 1 0 0 0 20.472656 32.46875 A 1 1 0 0 0 21.472656 33.46875 A 1 1 0 0 0 22.472656 32.46875 A 1 1 0 0 0 21.472656 31.46875 z M 58.527344 31.46875 A 1 1 0 0 0 57.527344 32.46875 A 1 1 0 0 0 58.527344 33.46875 A 1 1 0 0 0 59.527344 32.46875 A 1 1 0 0 0 58.527344 31.46875 z M 34.341797 33.34375 A 1 1 0 0 0 33.341797 34.34375 A 1 1 0 0 0 34.341797 35.34375 A 1 1 0 0 0 35.341797 34.34375 A 1 1 0 0 0 34.341797 33.34375 z M 45.65625 33.34375 A 1 1 0 0 0 44.65625 34.34375 A 1 1 0 0 0 45.65625 35.34375 A 1 1 0 0 0 46.65625 34.34375 A 1 1 0 0 0 45.65625 33.34375 z M 40 35 A 1 1 0 0 0 39 36 A 1 1 0 0 0 40 37 A 1 1 0 0 0 41 36 A 1 1 0 0 0 40 35 z M 20.402344 35.005859 A 1 1 0 0 0 19.402344 36.005859 A 1 1 0 0 0 20.402344 37.005859 A 1 1 0 0 0 21.402344 36.005859 A 1 1 0 0 0 20.402344 35.005859 z M 59.597656 35.005859 A 1 1 0 0 0 58.597656 36.005859 A 1 1 0 0 0 59.597656 37.005859 A 1 1 0 0 0 60.597656 36.005859 A 1 1 0 0 0 59.597656 35.005859 z M 37.171875 36.171875 A 1 1 0 0 0 36.171875 37.171875 A 1 1 0 0 0 37.171875 38.171875 A 1 1 0 0 0 38.171875 37.171875 A 1 1 0 0 0 37.171875 36.171875 z M 42.828125 36.171875 A 1 1 0 0 0 41.828125 37.171875 A 1 1 0 0 0 42.828125 38.171875 A 1 1 0 0 0 43.828125 37.171875 A 1 1 0 0 0 42.828125 36.171875 z M 12 39 A 1 1 0 0 0 11 40 A 1 1 0 0 0 12 41 A 1 1 0 0 0 13 40 A 1 1 0 0 0 12 39 z M 16 39 A 1 1 0 0 0 15 40 A 1 1 0 0 0 16 41 A 1 1 0 0 0 17 40 A 1 1 0 0 0 16 39 z M 20 39 A 1 1 0 0 0 19 40 A 1 1 0 0 0 20 41 A 1 1 0 0 0 21 40 A 1 1 0 0 0 20 39 z M 24 39 A 1 1 0 0 0 23 40 A 1 1 0 0 0 24 41 A 1 1 0 0 0 25 40 A 1 1 0 0 0 24 39 z M 28 39 A 1 1 0 0 0 27 40 A 1 1 0 0 0 28 41 A 1 1 0 0 0 29 40 A 1 1 0 0 0 28 39 z M 32 39 A 1 1 0 0 0 31 40 A 1 1 0 0 0 32 41 A 1 1 0 0 0 33 40 A 1 1 0 0 0 32 39 z M 36 39 A 1 1 0 0 0 35 40 A 1 1 0 0 0 36 41 A 1 1 0 0 0 37 40 A 1 1 0 0 0 36 39 z M 40 39 A 1 1 0 0 0 39 40 A 1 1 0 0 0 40 41 A 1 1 0 0 0 41 40 A 1 1 0 0 0 40 39 z M 44 39 A 1 1 0 0 0 43 40 A 1 1 0 0 0 44 41 A 1 1 0 0 0 45 40 A 1 1 0 0 0 44 39 z M 48 39 A 1 1 0 0 0 47 40 A 1 1 0 0 0 48 41 A 1 1 0 0 0 49 40 A 1 1 0 0 0 48 39 z M 52 39 A 1 1 0 0 0 51 40 A 1 1 0 0 0 52 41 A 1 1 0 0 0 53 40 A 1 1 0 0 0 52 39 z M 56 39 A 1 1 0 0 0 55 40 A 1 1 0 0 0 56 41 A 1 1 0 0 0 57 40 A 1 1 0 0 0 56 39 z M 60 39 A 1 1 0 0 0 59 40 A 1 1 0 0 0 60 41 A 1 1 0 0 0 61 40 A 1 1 0 0 0 60 39 z M 64 39 A 1 1 0 0 0 63 40 A 1 1 0 0 0 64 41 A 1 1 0 0 0 65 40 A 1 1 0 0 0 64 39 z M 68 39 A 1 1 0 0 0 67 40 A 1 1 0 0 0 68 41 A 1 1 0 0 0 69 40 A 1 1 0 0 0 68 39 z M 37.171875 41.828125 A 1 1 0 0 0 36.171875 42.828125 A 1 1 0 0 0 37.171875 43.828125 A 1 1 0 0 0 38.171875 42.828125 A 1 1 0 0 0 37.171875 41.828125 z M 42.826172 41.828125 A 1 1 0 0 0 41.826172 42.828125 A 1 1 0 0 0 42.826172 43.828125 A 1 1 0 0 0 43.826172 42.828125 A 1 1 0 0 0 42.826172 41.828125 z M 20.402344 42.994141 A 1 1 0 0 0 19.402344 43.994141 A 1 1 0 0 0 20.402344 44.994141 A 1 1 0 0 0 21.402344 43.994141 A 1 1 0 0 0 20.402344 42.994141 z M 59.597656 42.994141 A 1 1 0 0 0 58.597656 43.994141 A 1 1 0 0 0 59.597656 44.994141 A 1 1 0 0 0 60.597656 43.994141 A 1 1 0 0 0 59.597656 42.994141 z M 40 43 A 1 1 0 0 0 39 44 A 1 1 0 0 0 40 45 A 1 1 0 0 0 41 44 A 1 1 0 0 0 40 43 z M 34.34375 44.65625 A 1 1 0 0 0 33.34375 45.65625 A 1 1 0 0 0 34.34375 46.65625 A 1 1 0 0 0 35.34375 45.65625 A 1 1 0 0 0 34.34375 44.65625 z M 45.65625 44.65625 A 1 1 0 0 0 44.65625 45.65625 A 1 1 0 0 0 45.65625 46.65625 A 1 1 0 0 0 46.65625 45.65625 A 1 1 0 0 0 45.65625 44.65625 z M 21.472656 46.53125 A 1 1 0 0 0 20.472656 47.53125 A 1 1 0 0 0 21.472656 48.53125 A 1 1 0 0 0 22.472656 47.53125 A 1 1 0 0 0 21.472656 46.53125 z M 58.527344 46.53125 A 1 1 0 0 0 57.527344 47.53125 A 1 1 0 0 0 58.527344 48.53125 A 1 1 0 0 0 59.527344 47.53125 A 1 1 0 0 0 58.527344 46.53125 z M 40 47 A 1 1 0 0 0 39 48 A 1 1 0 0 0 40 49 A 1 1 0 0 0 41 48 A 1 1 0 0 0 40 47 z M 31.513672 47.484375 A 1 1 0 0 0 30.513672 48.484375 A 1 1 0 0 0 31.513672 49.484375 A 1 1 0 0 0 32.513672 48.484375 A 1 1 0 0 0 31.513672 47.484375 z M 48.484375 47.484375 A 1 1 0 0 0 47.484375 48.484375 A 1 1 0 0 0 48.484375 49.484375 A 1 1 0 0 0 49.484375 48.484375 A 1 1 0 0 0 48.484375 47.484375 z M 23.285156 49.982422 A 1 1 0 0 0 22.285156 50.982422 A 1 1 0 0 0 23.285156 51.982422 A 1 1 0 0 0 24.285156 50.982422 A 1 1 0 0 0 23.285156 49.982422 z M 56.714844 49.982422 A 1 1 0 0 0 55.714844 50.982422 A 1 1 0 0 0 56.714844 51.982422 A 1 1 0 0 0 57.714844 50.982422 A 1 1 0 0 0 56.714844 49.982422 z M 28.685547 50.314453 A 1 1 0 0 0 27.685547 51.314453 A 1 1 0 0 0 28.685547 52.314453 A 1 1 0 0 0 29.685547 51.314453 A 1 1 0 0 0 28.685547 50.314453 z M 51.3125 50.314453 A 1 1 0 0 0 50.3125 51.314453 A 1 1 0 0 0 51.3125 52.314453 A 1 1 0 0 0 52.3125 51.314453 A 1 1 0 0 0 51.3125 50.314453 z M 40 51 A 1 1 0 0 0 39 52 A 1 1 0 0 0 40 53 A 1 1 0 0 0 41 52 A 1 1 0 0 0 40 51 z M 25.857422 53.142578 A 1 1 0 0 0 24.857422 54.142578 A 1 1 0 0 0 25.857422 55.142578 A 1 1 0 0 0 26.857422 54.142578 A 1 1 0 0 0 25.857422 53.142578 z M 54.140625 53.142578 A 1 1 0 0 0 53.140625 54.142578 A 1 1 0 0 0 54.140625 55.142578 A 1 1 0 0 0 55.140625 54.142578 A 1 1 0 0 0 54.140625 53.142578 z M 40 55 A 1 1 0 0 0 39 56 A 1 1 0 0 0 40 57 A 1 1 0 0 0 41 56 A 1 1 0 0 0 40 55 z M 29.017578 55.714844 A 1 1 0 0 0 28.017578 56.714844 A 1 1 0 0 0 29.017578 57.714844 A 1 1 0 0 0 30.017578 56.714844 A 1 1 0 0 0 29.017578 55.714844 z M 50.982422 55.714844 A 1 1 0 0 0 49.982422 56.714844 A 1 1 0 0 0 50.982422 57.714844 A 1 1 0 0 0 51.982422 56.714844 A 1 1 0 0 0 50.982422 55.714844 z M 23.029297 55.970703 A 1 1 0 0 0 22.029297 56.970703 A 1 1 0 0 0 23.029297 57.970703 A 1 1 0 0 0 24.029297 56.970703 A 1 1 0 0 0 23.029297 55.970703 z M 56.970703 55.970703 A 1 1 0 0 0 55.970703 56.970703 A 1 1 0 0 0 56.970703 57.970703 A 1 1 0 0 0 57.970703 56.970703 A 1 1 0 0 0 56.970703 55.970703 z M 32.46875 57.527344 A 1 1 0 0 0 31.46875 58.527344 A 1 1 0 0 0 32.46875 59.527344 A 1 1 0 0 0 33.46875 58.527344 A 1 1 0 0 0 32.46875 57.527344 z M 47.53125 57.527344 A 1 1 0 0 0 46.53125 58.527344 A 1 1 0 0 0 47.53125 59.527344 A 1 1 0 0 0 48.53125 58.527344 A 1 1 0 0 0 47.53125 57.527344 z M 36.005859 58.597656 A 1 1 0 0 0 35.005859 59.597656 A 1 1 0 0 0 36.005859 60.597656 A 1 1 0 0 0 37.005859 59.597656 A 1 1 0 0 0 36.005859 58.597656 z M 43.994141 58.597656 A 1 1 0 0 0 42.994141 59.597656 A 1 1 0 0 0 43.994141 60.597656 A 1 1 0 0 0 44.994141 59.597656 A 1 1 0 0 0 43.994141 58.597656 z M 20.199219 58.798828 A 1 1 0 0 0 19.199219 59.798828 A 1 1 0 0 0 20.199219 60.798828 A 1 1 0 0 0 21.199219 59.798828 A 1 1 0 0 0 20.199219 58.798828 z M 59.798828 58.798828 A 1 1 0 0 0 58.798828 59.798828 A 1 1 0 0 0 59.798828 60.798828 A 1 1 0 0 0 60.798828 59.798828 A 1 1 0 0 0 59.798828 58.798828 z M 40 59 A 1 1 0 0 0 39 60 A 1 1 0 0 0 40 61 A 1 1 0 0 0 41 60 A 1 1 0 0 0 40 59 z M 40 63 A 1 1 0 0 0 39 64 A 1 1 0 0 0 40 65 A 1 1 0 0 0 41 64 A 1 1 0 0 0 40 63 z M 40 67 A 1 1 0 0 0 39 68 A 1 1 0 0 0 40 69 A 1 1 0 0 0 41 68 A 1 1 0 0 0 40 67 z" fill="#D1D1D1" />
</svg>